HIERARCHY
ROOT Hips
{
	OFFSET 0.000000 0.000000 0.000000
	CHANNELS 6 Xposition Yposition Zposition Zrotation Yrotation Xrotation 
	JOINT LHipJoint
	{
		OFFSET 0.000000 0.000000 0.000000
		CHANNELS 3 Zrotation Yrotation Xrotation
		JOINT LeftUpLeg
		{
			OFFSET 1.363060 -1.794630 0.839290
			CHANNELS 3 Zrotation Yrotation Xrotation
			JOINT LeftLeg
			{
				OFFSET 2.448110 -6.726130 0.000000
				CHANNELS 3 Zrotation Yrotation Xrotation
				JOINT LeftFoot
				{
					OFFSET 2.562200 -7.039590 0.000000
					CHANNELS 3 Zrotation Yrotation Xrotation
					JOINT LeftToeBase
					{
						OFFSET 0.157640 -0.433110 2.322550
						CHANNELS 3 Zrotation Yrotation Xrotation
						End Site
						{
							OFFSET 0.000000 0.000000 0.000000
						}
					}
				}
			}
		}
	}
	JOINT RHipJoint
	{
		OFFSET 0.000000 0.000000 0.000000
		CHANNELS 3 Zrotation Yrotation Xrotation
		JOINT RightUpLeg
		{
			OFFSET -1.305520 -1.794630 0.839290
			CHANNELS 3 Zrotation Yrotation Xrotation
			JOINT RightLeg
			{
				OFFSET -2.542530 -6.985550 0.000000
				CHANNELS 3 Zrotation Yrotation Xrotation
				JOINT RightFoot
				{
					OFFSET -2.568260 -7.056230 0.000000
					CHANNELS 3 Zrotation Yrotation Xrotation
					JOINT RightToeBase
					{
						OFFSET -0.164730 -0.452590 2.363150
						CHANNELS 3 Zrotation Yrotation Xrotation
						End Site
						{
							OFFSET 0.000000 0.000000 0.000000
						}
					}
				}
			}
		}
	}
	JOINT LowerBack
	{
		OFFSET 0.000000 0.000000 0.000000
		CHANNELS 3 Zrotation Yrotation Xrotation
		JOINT Spine
		{
			OFFSET 0.028270 2.035590 -0.193380
			CHANNELS 3 Zrotation Yrotation Xrotation
			JOINT Spine1
			{
				OFFSET 0.056720 2.048850 -0.042750
				CHANNELS 3 Zrotation Yrotation Xrotation
				JOINT Neck
				{
					OFFSET 0.000000 0.000000 0.000000
					CHANNELS 3 Zrotation Yrotation Xrotation
					JOINT Neck1
					{
						OFFSET -0.054170 1.746240 0.172020
						CHANNELS 3 Zrotation Yrotation Xrotation
						JOINT Head
						{
							OFFSET 0.104070 1.761360 -0.123970
							CHANNELS 3 Zrotation Yrotation Xrotation
							End Site
							{
								OFFSET 0.000000 0.000000 0.000000
							}
						}
					}
				}
				JOINT LeftShoulder
				{
					OFFSET 0.000000 0.000000 0.000000
					CHANNELS 3 Zrotation Yrotation Xrotation
					JOINT LeftArm
					{
						OFFSET 3.362410 1.200890 -0.311210
						CHANNELS 3 Zrotation Yrotation Xrotation
						JOINT LeftForeArm
						{
							OFFSET 4.983000 -0.000000 -0.000000
							CHANNELS 3 Zrotation Yrotation Xrotation
							JOINT LeftHand
							{
								OFFSET 3.483560 -0.000000 -0.000000
								CHANNELS 3 Zrotation Yrotation Xrotation
								JOINT LeftFingerBase
								{
									OFFSET 0.000000 0.000000 0.000000
									CHANNELS 3 Zrotation Yrotation Xrotation
									JOINT LeftHandIndex1
									{
										OFFSET 0.715260 -0.000000 -0.000000
										CHANNELS 3 Zrotation Yrotation Xrotation
										End Site
										{
											OFFSET 0.000000 0.000000 0.000000
										}
									}
								}
								JOINT LThumb
								{
									OFFSET 0.000000 0.000000 0.000000
									CHANNELS 3 Zrotation Yrotation Xrotation
									End Site
									{
										OFFSET 0.000000 0.000000 0.000000
									}
								}
							}
						}
					}
				}
				JOINT RightShoulder
				{
					OFFSET 0.000000 0.000000 0.000000
					CHANNELS 3 Zrotation Yrotation Xrotation
					JOINT RightArm
					{
						OFFSET -3.136600 1.374050 -0.404650
						CHANNELS 3 Zrotation Yrotation Xrotation
						JOINT RightForeArm
						{
							OFFSET -5.241900 -0.000000 -0.000000
							CHANNELS 3 Zrotation Yrotation Xrotation
							JOINT RightHand
							{
								OFFSET -3.444170 -0.000000 -0.000000
								CHANNELS 3 Zrotation Yrotation Xrotation
								JOINT RightFingerBase
								{
									OFFSET 0.000000 0.000000 0.000000
									CHANNELS 3 Zrotation Yrotation Xrotation
									JOINT RightHandIndex1
									{
										OFFSET -0.622530 -0.000000 -0.000000
										CHANNELS 3 Zrotation Yrotation Xrotation
										End Site
										{
											OFFSET 0.000000 0.000000 0.000000
										}
									}
								}
								JOINT RThumb
								{
									OFFSET 0.000000 0.000000 0.000000
									CHANNELS 3 Zrotation Yrotation Xrotation
									End Site
									{
										OFFSET 0.000000 0.000000 0.000000
									}
								}
							}
						}
					}
				}
			}
		}
	}
}
MOTION
Frames: 12
Frame Time: 0.016667
-0.032954 16.838744 0.008088 0.219051 -0.932027 8.822521 -2.189652 17.368593 -4.051272 -23.938934 -8.545869 -15.735437 -5.079078 -3.300218 -6.360414 0.073474 6.619764 19.844127 0.000000 0.000000 0.000000 2.508521 -20.720294 6.776252 17.509489 8.953487 -8.753406 -3.326980 -10.860898 36.375207 2.739167 6.956382 -27.604844 0.000000 0.000000 0.000000 -0.181289 2.575853 3.827175 -0.187402 1.950136 5.314608 3.154103 2.552363 -14.665117 4.022470 -1.145385 -4.791627 -2.193493 -0.319635 5.789044 0.000000 0.000000 0.000000 -2.608627 13.327301 4.842994 -66.305157 -7.461082 -1.241190 -28.010899 25.482812 0.042594 -1.374137 -9.031094 0.021078 -1.367131 -9.032926 0.000000 0.000000 0.000000 0.000000 0.000000 0.000000 0.000000 1.892248 -12.846113 8.265610 59.897989 7.506952 7.323273 31.274603 47.905470 -0.002678 -0.554835 3.458910 -0.001485 -0.559369 3.459287 0.000000 0.000000 0.000000 0.000000 0.000000 0.000000 0.000000 
-0.026102 16.875437 0.219468 0.375670 -1.021983 9.579480 -2.491820 18.626873 -3.118654 -24.070037 -9.775253 -17.382208 -5.111901 -3.014917 -4.495782 -0.066038 5.459293 17.770526 0.000000 0.000000 0.000000 2.969676 -21.616251 7.987550 16.786126 10.048289 -10.638424 -4.068615 -10.547474 36.975123 2.644906 6.467482 -25.487171 0.000000 0.000000 0.000000 -0.279508 2.436965 2.274749 -0.624732 1.792718 4.776069 3.289155 2.307455 -13.924554 4.516629 -1.174248 -4.675764 -2.270523 -0.317604 6.226763 0.000000 0.000000 0.000000 -3.642464 12.620467 5.200421 -65.540668 -6.884104 -1.459001 -26.985506 25.634573 0.001351 -1.098784 -8.561407 0.000485 -1.091358 -8.562841 0.000000 0.000000 0.000000 0.000000 0.000000 0.000000 0.000000 2.545550 -12.140076 8.764571 60.323551 7.685026 5.995928 29.951536 46.096033 0.001074 -0.508593 3.267000 0.000420 -0.512334 3.267349 0.000000 0.000000 0.000000 0.000000 0.000000 0.000000 0.000000 
-0.017197 16.913949 0.430246 0.518744 -1.090489 10.315021 -2.888278 19.828558 -2.176433 -24.029070 -10.997547 -19.091952 -5.164422 -2.703267 -2.598444 -0.182375 4.373158 15.856302 0.000000 0.000000 0.000000 3.470251 -22.429982 9.159186 15.975196 11.039461 -12.477405 -4.730485 -10.245844 37.436949 2.552737 5.934853 -23.243738 0.000000 0.000000 0.000000 -0.355273 2.286510 0.754748 -1.068343 1.628883 4.153582 3.453005 2.049171 -13.056852 5.003411 -1.211930 -4.535404 -2.373239 -0.314420 6.604793 0.000000 0.000000 0.000000 -4.647848 11.898755 5.598335 -64.826112 -6.238656 -1.482762 -25.451000 25.285383 -0.017661 -0.809715 -8.162759 -0.009002 -0.802426 -8.163860 0.000000 0.000000 0.000000 0.000000 0.000000 0.000000 0.000000 3.208528 -11.391021 9.245469 60.722189 7.877263 4.767070 28.533076 44.392741 0.004933 -0.458499 3.087498 0.002374 -0.461534 3.087822 0.000000 0.000000 0.000000 0.000000 0.000000 0.000000 0.000000 
-0.008224 16.959977 0.557055 1.084631 -0.456788 10.387311 -3.935806 18.368029 -2.422970 -22.792506 -10.522473 -18.850492 -5.712987 -2.414875 -2.493325 -0.156950 4.244269 14.744651 0.000000 0.000000 0.000000 5.420626 -20.777694 9.410811 12.787332 10.768055 -13.990260 -4.114810 -11.612648 38.369227 3.037730 4.403413 -21.592413 0.000000 0.000000 0.000000 -0.669352 2.113886 0.700397 -1.583311 1.405003 4.930401 3.454869 1.776822 -12.808629 5.736607 -1.303649 -6.015003 -2.687295 -0.322302 6.596069 0.000000 0.000000 0.000000 -4.318728 11.488935 4.995958 -64.699296 -6.883291 -1.403570 -25.762298 24.294838 -0.017286 -0.649752 -8.323410 -0.008845 -0.641668 -8.324493 0.000000 0.000000 0.000000 0.000000 0.000000 0.000000 0.000000 2.097829 -10.605711 9.745086 61.908534 8.288154 3.455595 29.023485 40.165824 -0.011799 -0.336570 4.325890 -0.006088 -0.342383 4.326419 0.000000 0.000000 0.000000 0.000000 0.000000 0.000000 0.000000 
0.002476 17.007007 0.681972 1.591337 0.211286 10.431351 -4.963471 16.899439 -2.657640 -21.499765 -10.016590 -18.558225 -6.301806 -2.134727 -2.396282 -0.125656 4.142249 13.726754 0.000000 0.000000 0.000000 7.219167 -19.229512 9.646663 9.855395 10.328365 -15.172624 -3.510742 -12.903272 39.106398 3.531648 2.791255 -19.694385 0.000000 0.000000 0.000000 -0.881050 1.978951 0.650555 -2.136567 1.223490 5.787952 3.381876 1.548351 -12.528205 6.519039 -1.389672 -7.573972 -2.993535 -0.333066 6.599211 0.000000 0.000000 0.000000 -3.916175 10.933492 4.399545 -64.565430 -7.569684 -1.343635 -26.064352 23.230183 -0.017241 -0.487242 -8.482835 -0.008856 -0.478302 -8.483877 0.000000 0.000000 0.000000 0.000000 0.000000 0.000000 0.000000 0.799605 -9.609910 10.004172 63.235212 8.912377 2.115875 29.440961 34.344962 -0.031415 -0.244724 5.856629 -0.016026 -0.254172 5.857335 0.000000 0.000000 0.000000 0.000000 0.000000 0.000000 0.000000 
0.020897 17.043192 0.840786 1.980352 0.409698 10.772011 -5.481943 16.674960 -2.134319 -21.082714 -10.008585 -18.552567 -6.710584 -2.420830 -3.080500 -0.121422 4.105601 13.524356 0.000000 0.000000 0.000000 8.214506 -18.517247 9.866986 8.148049 10.309526 -16.240250 -3.652720 -13.514932 39.995974 3.798508 1.404636 -17.110694 0.000000 0.000000 0.000000 -1.024763 1.774288 0.156896 -2.510700 0.985953 5.635661 3.458719 1.293551 -12.567846 6.792648 -1.409210 -7.375417 -3.117975 -0.330457 6.588105 0.000000 0.000000 0.000000 -4.183497 11.020207 4.473271 -63.966626 -7.185484 -1.542183 -26.104771 23.901822 -0.026587 -0.413888 -8.340777 -0.013520 -0.404874 -8.341746 0.000000 0.000000 0.000000 0.000000 0.000000 0.000000 0.000000 0.832474 -9.906899 10.071182 63.310240 8.739017 1.810325 29.951727 32.698073 -0.032764 -0.170762 5.807316 -0.016679 -0.179758 5.808066 0.000000 0.000000 0.000000 0.000000 0.000000 0.000000 0.000000 
0.041041 17.079392 0.998586 2.211131 0.506181 11.064985 -5.892489 16.536586 -1.560733 -20.582457 -9.987983 -18.571435 -7.160801 -2.704607 -3.797135 -0.105523 4.118465 13.382964 0.000000 0.000000 0.000000 8.820029 -17.968052 9.949218 7.155633 10.312213 -16.818207 -3.942547 -13.882821 40.678353 4.061441 -0.022193 -14.272339 0.000000 0.000000 0.000000 -1.033012 1.604566 -0.293073 -2.865825 0.781715 5.453390 3.527890 1.072773 -12.593366 7.054208 -1.428891 -7.144755 -3.242459 -0.327726 6.569850 0.000000 0.000000 0.000000 -4.463946 11.128601 4.563252 -63.361365 -6.771806 -1.742881 -26.138927 24.534959 -0.035174 -0.343947 -8.196840 -0.017805 -0.334906 -8.197740 0.000000 0.000000 0.000000 0.000000 0.000000 0.000000 0.000000 0.894336 -10.199865 10.140365 63.357313 8.554297 1.538934 30.365953 31.182433 -0.033777 -0.103779 5.718373 -0.017160 -0.112249 5.719149 0.000000 0.000000 0.000000 0.000000 0.000000 0.000000 0.000000 
0.058625 17.108463 1.158900 2.483456 0.843103 11.299526 -5.949827 16.643308 -1.245675 -20.771409 -10.124394 -18.425351 -7.345535 -2.822451 -3.677124 -0.133902 3.799824 12.911482 0.000000 0.000000 0.000000 9.243537 -17.653736 10.096918 6.364719 10.388807 -17.383184 -4.214601 -14.269194 41.423256 4.442972 -1.598460 -11.384503 0.000000 0.000000 0.000000 -1.147828 1.462660 -0.583222 -3.216878 0.597543 4.935470 3.590191 0.863754 -12.349237 7.150037 -1.415715 -6.698185 -3.212175 -0.319663 6.548697 0.000000 0.000000 0.000000 -4.753851 11.047382 4.788248 -62.711457 -6.400260 -1.998172 -26.897637 24.751131 -0.054804 -0.289231 -7.954255 -0.027607 -0.280021 -7.955129 0.000000 0.000000 0.000000 0.000000 0.000000 0.000000 0.000000 1.127214 -10.344130 10.235554 63.210620 8.326244 1.484916 31.597680 29.755134 -0.042946 -0.048472 5.814703 -0.021755 -0.057434 5.815585 0.000000 0.000000 0.000000 0.000000 0.000000 0.000000 0.000000 
0.076984 17.136926 1.317552 2.741294 1.175436 11.524126 -6.001982 16.751570 -0.923026 -20.929894 -10.259138 -18.288085 -7.551803 -2.935371 -3.555745 -0.158094 3.501944 12.480427 0.000000 0.000000 0.000000 9.639335 -17.344644 10.223092 5.619440 10.430323 -17.878763 -4.451087 -14.635127 42.074181 4.839053 -3.209640 -8.469564 0.000000 0.000000 0.000000 -1.253482 1.331294 -0.864330 -3.597865 0.417944 4.429032 3.661900 0.659850 -12.112341 7.179611 -1.395109 -6.243483 -3.150743 -0.311678 6.528426 0.000000 0.000000 0.000000 -5.006075 10.963294 5.026761 -62.110927 -6.027959 -2.249757 -27.589502 24.938029 -0.072190 -0.232781 -7.718242 -0.036288 -0.223493 -7.719100 0.000000 0.000000 0.000000 0.000000 0.000000 0.000000 0.000000 1.397893 -10.495040 10.315187 63.036784 8.096568 1.431290 32.828617 28.288671 -0.052804 0.005442 5.903240 -0.026694 -0.004020 5.904238 0.000000 0.000000 0.000000 0.000000 0.000000 0.000000 0.000000 
0.092415 17.155247 1.461113 2.971594 1.637480 11.505768 -5.849315 16.685645 -1.075969 -21.399363 -10.263025 -17.826838 -7.455447 -2.696766 -2.531549 -0.207881 2.844690 11.228138 0.000000 0.000000 0.000000 9.885786 -16.847241 10.203792 4.887210 10.363076 -18.072998 -4.244029 -15.314217 42.955443 5.482560 -5.256800 -5.430203 0.000000 0.000000 0.000000 -1.416994 1.199014 -0.706666 -3.636844 0.249881 3.877612 3.576795 0.481349 -11.726133 7.269088 -1.367064 -6.086531 -3.074533 -0.303593 6.470073 0.000000 0.000000 0.000000 -5.016100 10.761008 5.261651 -61.836536 -5.935322 -2.344720 -29.125050 23.897006 -0.095438 -0.175007 -7.529069 -0.047909 -0.165259 -7.529984 0.000000 0.000000 0.000000 0.000000 0.000000 0.000000 0.000000 1.210640 -10.464975 10.404836 63.240606 8.069179 1.338714 33.795222 26.957381 -0.063748 0.035960 6.119068 -0.032190 0.025622 6.120175 0.000000 0.000000 0.000000 0.000000 0.000000 0.000000 0.000000 
0.107528 17.172481 1.602301 3.181055 2.073752 11.467925 -5.692684 16.612327 -1.220263 -21.664136 -10.230339 -17.455967 -7.707689 -2.337767 -1.440482 -0.229968 2.327104 10.023534 0.000000 0.000000 0.000000 10.102189 -16.366734 10.168035 4.211576 10.264382 -18.193263 -4.013360 -15.953725 43.729821 6.151573 -7.356084 -2.397597 0.000000 0.000000 0.000000 -1.569283 1.074270 -0.529888 -3.662408 0.091048 3.340300 3.484867 0.314227 -11.347632 7.359527 -1.339466 -5.935994 -2.998506 -0.295639 6.413343 0.000000 0.000000 0.000000 -5.028266 10.561084 5.495204 -61.591696 -5.848903 -2.421176 -30.575840 22.826747 -0.116460 -0.112214 -7.334529 -0.058417 -0.102100 -7.335517 0.000000 0.000000 0.000000 0.000000 0.000000 0.000000 0.000000 1.020329 -10.425197 10.485466 63.446247 8.056640 1.238650 34.743476 25.582233 -0.075284 0.065458 6.331282 -0.037982 0.054218 6.332507 0.000000 0.000000 0.000000 0.000000 0.000000 0.000000 0.000000 
0.124027 17.195008 1.741575 3.348186 2.344590 11.497867 -5.902417 16.375474 -1.171969 -21.366205 -10.198245 -17.396653 -7.976822 -2.038699 -0.678907 -0.234340 1.917552 8.873351 0.000000 0.000000 0.000000 10.548437 -15.681525 10.028964 3.395745 10.059665 -18.318500 -3.967653 -16.541429 44.450767 6.747166 -9.479600 0.808171 0.000000 0.000000 0.000000 -1.650066 0.917633 -0.417791 -3.729962 -0.085195 2.665689 3.439933 0.134188 -10.960172 7.224936 -1.329369 -5.767004 -2.859231 -0.292762 6.352192 0.000000 0.000000 0.000000 -4.903820 10.451015 5.749480 -61.398899 -5.762662 -2.255954 -31.570798 20.948517 -0.127054 -0.002653 -7.251564 -0.063724 0.007966 -7.252555 0.000000 0.000000 0.000000 0.000000 0.000000 0.000000 0.000000 0.968817 -10.464847 10.591180 63.461544 7.869838 1.308389 35.888516 25.080645 -0.082931 0.101920 6.403338 -0.041821 0.090137 6.404685 0.000000 0.000000 0.000000 0.000000 0.000000 0.000000 0.000000 
